<?xml version="1.0" encoding="utf-8"?>
<!-- Generator: Adobe Illustrator 18.1.1, SVG Export Plug-In . SVG Version: 6.00 Build 0)  -->
<svg version="1.1" id="Layer_1" xmlns="http://www.w3.org/2000/svg" xmlns:xlink="http://www.w3.org/1999/xlink" x="0px" y="0px"
	 viewBox="0 0 800 800" enable-background="new 0 0 800 800" xml:space="preserve">
<g id="Layer_1_1_">
	<rect x="141.3" fill="#E1C6A0" width="517.6" height="800"/>
</g>
<g id="Layer_6">
	<polygon fill="#E1C6A0" points="414.2,799.3 141.3,799.3 141.3,0 449.9,0 	"/>
	<polygon fill="#E1C6A0" points="385.9,800 658.8,800 658.8,0.7 350.3,0.7 	"/>
</g>
<g id="Layer_9">
	<rect x="141.3" y="0" fill="#231F20" width="517.3" height="43.4"/>
	<polygon fill="#231F20" points="658.6,799.7 141.3,799.7 145.4,760.5 658.6,756.3 	"/>
</g>
<g id="blocks">
	<polygon fill="#B14140" points="321.4,285.2 429.4,0 658.2,0.1 658.4,10.8 658.9,142.4 559,377.5 	"/>
	<polygon fill="#B14140" points="141.3,799.3 141.2,771.5 259.5,459 494.3,548 399,800 399,800 	"/>
</g>
<g id="guides" display="none">
</g>
<g id="clef">
	<g>
		<polygon fill="#231F20" points="235.8,521.6 321.7,284.7 559,377.5 469.3,615.9 		"/>
	</g>
	<g>
		<polygon fill="#231F20" points="321.4,285.3 236.5,83.3 375.2,144.1 		"/>
	</g>
	<g>
		<polygon fill="#231F20" points="469,614.8 442.1,686.5 514.4,715 		"/>
	</g>
</g>
<g id="text">
	<g>
		<path fill="#B14140" d="M229.9,480.3c1,3.8,0.8,7.5-0.5,11.1c-1,2.7-2.4,4.9-4.1,6.7c-1.7,1.8-3.6,3.1-5.7,4
			c-2.1,0.8-4.4,1.3-6.7,1.3c-2.4,0-4.7-0.5-7.1-1.3l-63.9-29l-1.4-14.1l70.7,28.8c0.8,0.3,1.7,0.3,2.4,0c0.7-0.3,1.2-0.9,1.5-1.8
			c0.3-0.8,0.3-1.5,0-2.2c-0.3-0.7-0.9-1.2-1.8-1.6l-16.6-6.2l5.4-14.4l16.6,6.2c0.8,0.3,1.7,0.3,2.4-0.1c0.7-0.4,1.2-0.9,1.5-1.7
			c0.3-0.8,0.3-1.5,0-2.3c-0.3-0.8-0.8-1.3-1.8-1.6l-16.6-6.2l5.4-14.2l16.6,6.2c2.3,0.8,4.4,2.1,6.1,3.7c1.8,1.6,3.1,3.5,4.1,5.6
			c1,2.1,1.6,4.4,1.7,6.8c0.1,2.5-0.3,5-1.2,7.5C235.5,475.1,233.1,478,229.9,480.3z"/>
		<path fill="#B14140" d="M208.4,422.4c1.6,0.6,2.7,1.6,3.5,3.1c0.7,1.5,0.7,3.1,0.1,4.6c-0.7,1.6-1.7,2.8-3.1,3.5
			c-1.5,0.7-3.1,0.7-4.6,0.1c-0.8-0.3-1.4-0.7-2-1.2c-0.6-0.5-1-1.2-1.4-1.9c-0.3-0.7-0.5-1.5-0.6-2.3c0-0.8,0.1-1.6,0.4-2.4
			c0.6-1.6,1.6-2.7,3.2-3.4C205.2,421.9,206.7,421.8,208.4,422.4z M249.3,436.4l-5.4,14.3l-33.1-12.5l5.4-14.3L249.3,436.4z"/>
		<path fill="#B14140" d="M239.3,412.8c0.8,0.3,1.6,0.3,2.4-0.1c0.7-0.4,1.2-0.9,1.6-1.7l14.2,5.3c-0.9,2.4-2.2,4.4-3.9,6.1
			c-1.7,1.8-3.6,3.1-5.8,4.1c-2.2,1-4.4,1.5-6.9,1.6c-2.4,0.1-4.8-0.3-7.1-1.2l-29.2-11l5.4-14.2l12.5,4.7l1-2.9l5.3,2l-1,2.9
			L239.3,412.8z"/>
		<path fill="#B14140" d="M271.2,378.4l-5.4,14.3l-17.6-6.6c-0.8-0.3-1.7-0.3-2.4,0.1c-0.7,0.4-1.2,0.9-1.5,1.7
			c-0.3,0.8-0.3,1.6,0,2.3c0.3,0.7,0.8,1.2,1.8,1.6l17.6,6.6l-5.4,14.3l-45.7-17.2l5.4-14.3l13.1,4.9c0-0.3-0.1-0.5-0.1-0.8
			c0-0.3,0-0.7,0.1-1.2c0.1-0.5,0.2-1.1,0.5-1.9c0.2-0.8,0.5-1.7,1-2.9c1.6-4.1,4.2-6.9,7.9-8.3c3.7-1.4,8.2-1.1,13.3,0.8
			L271.2,378.4z"/>
		<path fill="#B14140" d="M268.4,335.6c2.3,0.8,4.3,2.2,6.1,3.9c1.7,1.7,3.1,3.6,4.1,5.8c1,2.2,1.5,4.4,1.7,6.8c0.1,2.4-0.2,4.8-1,7
			c-0.9,2.4-2.2,4.4-3.9,6.2s-3.6,3.1-5.7,4.1c-2.2,1-4.4,1.6-6.8,1.7s-4.8-0.3-7.3-1.2c-2.3-0.8-4.3-2.2-6.1-3.9
			c-1.7-1.7-3.1-3.6-4.1-5.8s-1.6-4.4-1.7-6.8c-0.1-2.4,0.2-4.7,1-7c0.9-2.4,2.2-4.4,3.9-6.2c1.7-1.8,3.6-3.1,5.8-4.2
			c2.2-1,4.4-1.6,6.9-1.7C263.6,334.2,266,334.6,268.4,335.6z M263,349.9c-0.8-0.3-1.7-0.3-2.4,0.1c-0.7,0.4-1.2,0.9-1.5,1.7
			c-0.3,0.8-0.3,1.6,0,2.3c0.3,0.7,0.8,1.2,1.8,1.6s1.7,0.3,2.4-0.1c0.7-0.4,1.2-1,1.5-1.8c0.3-0.8,0.3-1.5,0-2.3
			C264.4,350.8,263.9,350.3,263,349.9z"/>
		<path fill="#B14140" d="M252.9,326.4l5.4-14.3l16.6,6.2c0.8,0.3,1.6,0.3,2.3-0.1c0.8-0.3,1.3-0.8,1.6-1.6c0.3-0.8,0.3-1.6-0.1-2.4
			c-0.3-0.8-0.9-1.3-1.7-1.6l-16.6-6.2l5.4-14.4l16.6,6.2c2.4,0.9,4.4,2.2,6.1,3.7c1.8,1.6,3.1,3.5,4.1,5.5c1,2.1,1.6,4.3,1.7,6.7
			c0.1,2.4-0.3,4.9-1.2,7.5c-1,2.5-2.3,4.8-4,6.5s-3.6,3.1-5.7,4.1c-2.1,0.9-4.4,1.4-6.7,1.5c-2.4,0.1-4.8-0.3-7.2-1.2L252.9,326.4z
			"/>
		<path fill="#B14140" d="M288.9,281c0.8,0.3,1.6,0.3,2.4-0.1C292,280.6,402.6,0.8,402.9,0h16.4C418.4,2.4,305,289,303.3,290.7
			c-1.7,1.8-3.6,3.1-5.8,4.1c-2.2,1-4.4,1.5-6.9,1.6c-2.4,0.1-4.8-0.3-7.1-1.2l-29.2-10.9l5.4-14.2l12.5,4.7l1-2.9l5.3,2l-1,2.9
			L288.9,281z"/>
	</g>
	
		<text transform="matrix(0.9371 0.3491 -0.3491 0.9371 351.8134 281.803)" fill="#E1C6A0" font-family="'KnuckleDown-Regular'" font-size="65.3604">music</text>
	<path fill="#B14140" d="M542.2,469l5.9-15.9L659,494.7v18.2L542.2,469z"/>
	<path fill="#B14140" d="M534.8,488.9l5.9-15.9l36.9,13.8l-5.9,15.9L534.8,488.9z M580.3,504.4c-1.8-0.7-3.1-1.8-3.8-3.5
		c-0.8-1.6-0.8-3.4-0.1-5.2c0.7-1.8,1.8-3.1,3.5-3.9c1.6-0.8,3.4-0.8,5.2-0.1c0.8,0.3,1.6,0.8,2.3,1.4c0.7,0.6,1.2,1.3,1.6,2.1
		s0.6,1.6,0.6,2.5c0.1,0.9-0.1,1.8-0.5,2.7c-0.7,1.8-1.8,3.1-3.5,3.8C583.9,505,582.2,505,580.3,504.4z"/>
	<path fill="#B14140" d="M547.6,520.5c0.3-0.8,0.3-1.8,0.1-2.9c-0.3-1-0.9-1.8-1.8-2.1l-1.4,3.8l-5.9-2.2l1.4-3.8l-12.5-4.7
		l5.9-15.9l18.4,6.9c2.6,1,4.8,2.4,6.8,4.4c1.9,2,3.4,4.1,4.4,6.6c1,2.4,1.6,5,1.8,7.8c0.1,2.7-0.3,5.4-1.3,8L547.6,520.5z"/>
	<path fill="#B14140" d="M528.2,560l8.4-22.4c-2-0.2-3.2,0.6-3.9,2.2c-0.3,0.8-99.8,259.1-99.3,260.1h-14.2
		c-0.1-4.1,95.8-260.7,97.8-265.8c1-2.6,2.4-4.9,4.2-6.9c1.8-2,4-3.5,6.3-4.6c2.4-1.1,4.9-1.7,7.6-1.9c2.7-0.1,5.4,0.3,8,1.3
		c2.6,1,4.9,2.4,6.8,4.3s3.4,4,4.5,6.3c1.1,2.4,1.7,4.9,1.8,7.5c0.1,2.7-0.3,5.2-1.2,7.8c-1,2.6-2.4,4.9-4.3,6.9
		c-1.9,2-4,3.5-6.4,4.6c-2.4,1.1-4.9,1.8-7.6,1.9c-2.7,0.1-5.4-0.3-8-1.2L528.2,560z M536.5,544.6c1.6,0,2.7-0.7,3.2-2.1
		c0.6-1.5,0.3-2.8-1-4L536.5,544.6z"/>
	
		<text transform="matrix(0.93 0.3676 -0.3676 0.93 227.1155 576.1652)" fill="#E1C6A0" font-family="'KnuckleDown-Regular'" font-size="45.7523">would be</text>
	<g>
		<path fill="#E1C6A0" d="M180.3,34.2c-0.4,0-0.8,0.1-1.1,0.4c-0.4,0.3-0.6,0.6-0.6,1h1.7v2.7h-1.7V44h-7.1v-8.3
			c0-1.2,0.3-2.3,0.7-3.3c0.5-1,1.1-2,2-2.7c0.8-0.8,1.8-1.4,2.8-1.8c1-0.5,2.2-0.7,3.3-0.7C180.3,27.1,180.3,34.2,180.3,34.2z"/>
		<path fill="#E1C6A0" d="M192.4,27.1c0.8,0,1.7,0.1,2.7,0.4l-2.3,6.8c-0.1,0-0.1,0-0.2-0.1c-0.1,0-0.1,0-0.2,0
			c-0.4,0-0.7,0.1-1,0.5c-0.3,0.3-0.4,0.6-0.4,1v8.2h-7.2v-8.2c0-1.2,0.2-2.3,0.7-3.3c0.5-1,1-2,1.8-2.7c0.8-0.8,1.7-1.4,2.7-1.8
			C190.1,27.3,191.2,27.1,192.4,27.1z"/>
		<path fill="#E1C6A0" d="M205.6,43.9h-7.1V27.4h7.1V43.9z M205,23.7c0,0.8-0.3,1.5-0.8,2c-0.5,0.5-1.2,0.8-2,0.8
			c-0.8,0-1.5-0.3-2-0.8c-0.5-0.5-0.8-1.2-0.8-2c0-0.4,0.1-0.7,0.2-1.1c0.1-0.3,0.3-0.7,0.6-0.9c0.3-0.3,0.6-0.5,0.9-0.6
			s0.7-0.2,1.1-0.2c0.8,0,1.5,0.3,2,0.8C204.7,22.2,205,22.9,205,23.7z"/>
		<path fill="#E1C6A0" d="M226.4,36h-10c0.2,0.8,0.7,1.2,1.4,1.2c0.4,0,0.7-0.2,1-0.5l5,5c-1.6,1.6-3.7,2.5-6,2.5
			c-1.2,0-2.3-0.2-3.3-0.7c-1-0.5-2-1-2.7-1.8c-0.8-0.8-1.4-1.7-1.8-2.7c-0.5-1-0.7-2.2-0.7-3.3c0-1.2,0.3-2.3,0.7-3.3
			c0.5-1,1-2,1.8-2.7c0.8-0.8,1.6-1.4,2.7-1.8c1-0.5,2.1-0.7,3.3-0.7c1.2,0,2.3,0.2,3.3,0.7c1,0.5,2,1,2.7,1.8
			c0.8,0.8,1.4,1.7,1.9,2.7c0.5,1,0.7,2.2,0.7,3.3L226.4,36L226.4,36z M219.2,35c-0.3-0.7-0.7-1-1.3-1s-1.2,0.3-1.4,1H219.2z"/>
		<path fill="#E1C6A0" d="M239.4,21.1h7.1v14.5c0,1.2-0.2,2.3-0.7,3.3c-0.5,1-1,2-1.8,2.7c-0.8,0.8-1.7,1.4-2.7,1.8
			c-1,0.5-2.2,0.7-3.3,0.7c-1.2,0-2.3-0.2-3.3-0.7c-1-0.5-2-1-2.7-1.8c-0.8-0.8-1.4-1.7-1.8-2.7c-0.5-1-0.7-2.2-0.7-3.3
			c0-1.2,0.3-2.3,0.7-3.3c0.5-1,1.1-2,1.9-2.7c0.8-0.8,1.7-1.4,2.7-1.8c1-0.5,2.1-0.7,3.3-0.7c0.3,0,0.5,0,0.8,0
			c0.2,0,0.5,0.1,0.7,0.1L239.4,21.1L239.4,21.1z M239.4,35.7c0-0.5-0.1-0.8-0.4-1c-0.3-0.3-0.6-0.4-1-0.4s-0.7,0.1-1,0.4
			c-0.3,0.3-0.4,0.6-0.4,1c0,0.5,0.1,0.8,0.4,1c0.3,0.3,0.6,0.4,1,0.4c0.4,0,0.7-0.1,1-0.4S239.4,36.1,239.4,35.7z"/>
		<path fill="#E1C6A0" d="M258.8,27.1c0.8,0,1.7,0.1,2.7,0.4l-2.3,6.8c-0.1,0-0.1,0-0.2-0.1c-0.1,0-0.1,0-0.2,0
			c-0.4,0-0.7,0.1-1,0.5c-0.3,0.3-0.4,0.6-0.4,1v8.2h-7.1v-8.2c0-1.2,0.2-2.3,0.7-3.3c0.5-1,1-2,1.8-2.7c0.8-0.8,1.7-1.4,2.7-1.8
			S257.6,27.1,258.8,27.1z"/>
		<path fill="#E1C6A0" d="M272,43.9h-7.1V27.4h7.1V43.9z M271.4,23.7c0,0.8-0.3,1.5-0.8,2c-0.5,0.5-1.2,0.8-2,0.8
			c-0.8,0-1.5-0.3-2-0.8c-0.5-0.5-0.8-1.2-0.8-2c0-0.4,0.1-0.7,0.2-1.1c0.1-0.3,0.3-0.7,0.6-0.9c0.3-0.3,0.6-0.5,0.9-0.6
			c0.3-0.1,0.7-0.2,1.1-0.2c0.8,0,1.5,0.3,2,0.8C271.2,22.2,271.4,22.9,271.4,23.7z"/>
		<path fill="#E1C6A0" d="M290.7,41.7c-1.7,1.6-3.7,2.5-6,2.5c-1.2,0-2.3-0.3-3.3-0.7c-1-0.5-2-1-2.7-1.8c-0.8-0.8-1.4-1.6-1.8-2.7
			c-0.5-1-0.7-2.1-0.7-3.3c0-1.2,0.2-2.3,0.7-3.3c0.5-1,1-2,1.8-2.7c0.8-0.8,1.7-1.4,2.7-1.9c1-0.5,2.2-0.7,3.3-0.7
			c2.4,0,4.4,0.8,6,2.5l-5,5.1c-0.3-0.3-0.6-0.5-1-0.5c-0.4,0-0.7,0.1-1,0.5c-0.3,0.3-0.5,0.7-0.5,1c0,0.4,0.1,0.7,0.5,1
			c0.3,0.3,0.6,0.5,1,0.5c0.4,0,0.7-0.1,1-0.5L290.7,41.7z"/>
		<path fill="#E1C6A0" d="M311.8,43.9h-7.1v-8.8c0-0.5-0.1-0.8-0.4-1s-0.6-0.4-1-0.4c-0.4,0-0.7,0.1-1,0.4c-0.3,0.3-0.4,0.6-0.4,1
			v8.8h-7.1V21.1h7.1v6.5c0.1-0.1,0.3-0.1,0.4-0.2c0.1-0.1,0.3-0.1,0.5-0.2c0.3-0.1,0.5-0.1,0.9-0.1c0.4-0.1,0.8-0.1,1.4-0.1
			c2.1,0,3.7,0.7,4.9,2.1c1.2,1.4,1.8,3.4,1.8,5.9L311.8,43.9L311.8,43.9z"/>
	</g>
	<g>
		<path fill="#231F20" d="M149.3,58.4l0.1-7.2l8.3,0.1c0.5,0,0.8-0.1,1-0.4s0.4-0.6,0.4-1s-0.1-0.7-0.4-1c-0.3-0.3-0.6-0.4-1-0.4
			l-8.3-0.1l0.1-7.1l8.3,0.1c1.2,0,2.3,0.2,3.3,0.6c1,0.4,2,0.9,2.7,1.6c0.8,0.7,1.4,1.6,1.8,2.7c0.5,1,0.7,2.2,0.7,3.6
			s-0.3,2.5-0.7,3.7c-0.5,1-1,2-1.8,2.7c-0.8,0.7-1.7,1.3-2.7,1.7c-1,0.4-2.2,0.6-3.3,0.6L149.3,58.4z"/>
		<path fill="#231F20" d="M149.2,69.3l0.1-7.1l16.5,0.1l-0.1,7.1L149.2,69.3z M169.4,68.9c-0.8,0-1.5-0.3-2-0.8
			c-0.5-0.5-0.8-1.2-0.8-2c0-0.8,0.3-1.5,0.8-2c0.5-0.5,1.2-0.8,2-0.8c0.4,0,0.7,0.1,1.1,0.2c0.3,0.1,0.7,0.3,0.9,0.6
			c0.3,0.3,0.5,0.6,0.6,0.9s0.2,0.7,0.2,1.1c0,0.8-0.3,1.5-0.8,2C170.8,68.6,170.2,68.9,169.4,68.9z"/>
		<path fill="#231F20" d="M157,90.2l0.1-10c-0.8,0.2-1.2,0.7-1.2,1.4c0,0.4,0.2,0.7,0.5,1l-5.1,5c-1.6-1.7-2.5-3.7-2.5-6
			c0-1.2,0.3-2.3,0.7-3.3c0.5-1,1-2,1.8-2.7s1.7-1.4,2.7-1.8c1-0.5,2.2-0.7,3.4-0.7c1.2,0,2.3,0.3,3.3,0.7c1,0.5,2,1.1,2.7,1.8
			c0.8,0.8,1.4,1.7,1.8,2.7c0.5,1,0.7,2.1,0.7,3.3s-0.3,2.3-0.7,3.3c-0.5,1-1,2-1.8,2.7s-1.7,1.4-2.7,1.8c-1,0.5-2.2,0.7-3.3,0.7
			L157,90.2z M158,82.9c0.7-0.3,1-0.7,1-1.3s-0.3-1.2-1-1.4V82.9z"/>
		<path fill="#231F20" d="M157.3,100.7c-0.4,0-0.8,0.1-1,0.4c-0.3,0.3-0.4,0.6-0.4,1l-7.1-0.1c0-1.2,0.3-2.3,0.7-3.3
			c0.5-1,1-2,1.8-2.7c0.8-0.8,1.7-1.4,2.7-1.8c1-0.5,2.2-0.7,3.3-0.7l14.5,0.1l-0.1,7.1l-6.3-0.1v1.4h-2.6v-1.4L157.3,100.7z"/>
		<path fill="#231F20" d="M148.8,121.8l0.1-16.3l11.3,7l0.1-5.9l5.2,0.1l-0.1,15.6l-11-6.7l-0.1,6.3L148.8,121.8z"/>
		<path fill="#231F20" d="M158.6,136.4c0-0.4-0.1-0.7-0.1-1c-0.1-0.3-0.3-0.5-0.5-0.6c-0.2-0.1-0.5-0.3-0.8-0.3
			c-0.3-0.1-0.8-0.1-1.3-0.1c-1,0-2-0.2-2.9-0.5c-0.9-0.3-1.7-0.9-2.4-1.6s-1.2-1.7-1.6-2.9c-0.4-1.2-0.6-2.5-0.5-4.2l7,0.1
			c0,0.4,0.1,0.8,0.1,1c0.1,0.3,0.3,0.5,0.4,0.6c0.2,0.1,0.5,0.3,0.7,0.3s0.7,0.1,1.1,0.1c0.8,0,1.8,0.2,2.7,0.6
			c0.9,0.4,1.7,0.9,2.4,1.7c0.7,0.8,1.3,1.7,1.8,2.9c0.5,1.1,0.7,2.5,0.7,4L158.6,136.4z"/>
		<path fill="#231F20" d="M150.8,154.6c-1.6-1.7-2.5-3.7-2.5-6.1c0-1.2,0.3-2.3,0.7-3.3c0.5-1,1.1-2,1.8-2.7
			c0.8-0.8,1.7-1.4,2.7-1.8c1-0.5,2.1-0.7,3.3-0.7s2.3,0.3,3.3,0.7s2,1,2.7,1.8c0.8,0.8,1.4,1.7,1.8,2.7c0.5,1,0.7,2.2,0.7,3.3
			c0,2.4-0.8,4.4-2.5,6l-5-5.1c0.3-0.3,0.5-0.6,0.5-1s-0.1-0.7-0.5-1c-0.3-0.3-0.7-0.5-1-0.5c-0.4,0-0.7,0.1-1,0.4
			c-0.3,0.3-0.5,0.6-0.5,1c0,0.4,0.1,0.7,0.5,1L150.8,154.6z"/>
		<path fill="#231F20" d="M148.5,175.7l0.1-7.1l8.8,0.1c0.5,0,0.8-0.1,1-0.4c0.3-0.3,0.4-0.6,0.4-1c0-0.4-0.1-0.7-0.4-1
			c-0.3-0.3-0.6-0.4-1-0.4l-8.8-0.1l0.1-7.1l22.8,0.1l-0.1,7.1l-6.5-0.1c0.1,0.1,0.1,0.3,0.2,0.4c0.1,0.1,0.1,0.3,0.1,0.5
			c0.1,0.3,0.1,0.5,0.1,0.9c0.1,0.4,0.1,0.8,0.1,1.4c0,2.1-0.7,3.7-2.1,4.9s-3.4,1.8-5.9,1.8L148.5,175.7z"/>
		<path fill="#231F20" d="M156.3,196.2l0.1-10c-0.8,0.2-1.2,0.7-1.2,1.4c0,0.4,0.2,0.7,0.5,1l-5.1,5c-1.6-1.7-2.5-3.7-2.5-6
			c0-1.2,0.3-2.3,0.7-3.3c0.5-1,1-2,1.8-2.7c0.8-0.8,1.7-1.4,2.7-1.8c1-0.5,2.2-0.7,3.4-0.7c1.2,0,2.3,0.3,3.3,0.7
			c1,0.5,2,1.1,2.7,1.8c0.8,0.8,1.4,1.7,1.8,2.7c0.5,1,0.7,2.1,0.7,3.3s-0.3,2.3-0.7,3.3c-0.5,1-1,2-1.8,2.7s-1.7,1.4-2.7,1.8
			c-1,0.5-2.2,0.7-3.3,0.7L156.3,196.2z M157.3,189c0.7-0.3,1-0.7,1-1.3s-0.3-1.2-1-1.4V189z"/>
	</g>
	<text transform="matrix(1 0 0 1 493.1291 790.4131)" fill="#E1C6A0" font-family="'KnuckleDown-Regular'" font-size="28.1046">a mistake</text>
</g>
<g id="Layer_5">
</g>
<g id="Layer_8">
</g>
<g id="Layer_10">
</g>
</svg>
