<?xml version="1.0" encoding="utf-8"?>
<!-- Generator: Adobe Illustrator 18.1.1, SVG Export Plug-In . SVG Version: 6.00 Build 0)  -->
<svg version="1.1" xmlns="http://www.w3.org/2000/svg" xmlns:xlink="http://www.w3.org/1999/xlink" x="0px" y="0px"
	 viewBox="0 0 360 504" enable-background="new 0 0 360 504" xml:space="preserve">
<g id="bg">
	
		<linearGradient id="SVGID_1_" gradientUnits="userSpaceOnUse" x1="177.8808" y1="515.0775" x2="180.6099" y2="-201.3114" gradientTransform="matrix(0.9925 -1.789962e-03 1.770367e-03 0.9981 2.2479 1.2645)">
		<stop  offset="0" style="stop-color:#FFFFFF"/>
		<stop  offset="0" style="stop-color:#484137"/>
		<stop  offset="0" style="stop-color:#484336"/>
		<stop  offset="0" style="stop-color:#464934"/>
		<stop  offset="0" style="stop-color:#BBBB89"/>
		<stop  offset="0" style="stop-color:#987851"/>
		<stop  offset="0.4828" style="stop-color:#665F4D"/>
		<stop  offset="0.5857" style="stop-color:#5A5443"/>
		<stop  offset="0.7297" style="stop-color:#413E2F"/>
		<stop  offset="1" style="stop-color:#000000"/>
	</linearGradient>
	<polygon fill="url(#SVGID_1_)" points="360.3,504.1 -0.2,503.8 0.2,-0.1 360.7,0.1 	"/>
	<g>
		<path stroke="#000000" stroke-miterlimit="10" d="M144.4,231.5"/>
	</g>
	<g>
		<path fill="none" stroke="#000000" stroke-miterlimit="10" d="M151.5,234.4"/>
	</g>
</g>
<g id="Layer_1">
	<g>
		<path fill="#ECD09E" stroke="#A57D59" stroke-miterlimit="10" d="M20.6,21.4c0.2,0.3,0.3,0.7,0.3,1.2c0,0.8-0.3,1.7-1,2.7l0.1,0.5
			l0.1,0.5l-0.1,1.3c-0.1,0.7-0.2,1.4-0.6,2.1l-0.4,1.4c0,0.4,0.1,0.7,0.2,0.9c0.1,0.2,0.3,0.3,0.5,0.3c0.2,0,0.5-0.5,0.7-1.4
			c0.2-0.9,0.7-1.3,1.4-1.3c0.3,0,0.5,0.1,0.7,0.2c0.2,0.2,0.3,0.3,0.3,0.6c0,0.5-0.2,0.7-0.7,0.7c-0.2,0-0.3-0.2-0.4-0.3
			c-0.1-0.2-0.2-0.2-0.4-0.1c-0.1,0.1-0.3,0.7-0.4,1.8c-0.1,1.1-0.6,1.6-1.3,1.6c-0.9,0-1.6-1.2-1.9-3.5c-0.3-2.3-1-3.5-2-3.5
			l-0.5,0.1c-0.5,0.1-0.9,0.4-1.1,0.7c-0.2,0.3-0.4,0.6-0.4,1.1l0.1,0.6c0.3-0.5,0.6-1,1-1.4c0.4-0.4,0.7-0.6,0.9-0.7
			c0.3,0,0.5,0.1,0.7,0.2c0.2,0.1,0.4,0.3,0.5,0.6L17,29c0,0.1-0.1,0.1-0.2,0.2c-0.1,0.1-0.2,0.2-0.4,0.3c-0.1,0.1-0.3,0.3-0.4,0.5
			c-0.2,0.2-0.3,0.4-0.4,0.6c-0.1,0.2-0.1,0.3-0.2,0.4c-0.1,0.1-0.1,0.3-0.2,0.7l-0.1,1c0,1.1,0.4,2,1.2,2.7c0.8,0.7,1.8,1.1,3,1.1
			l1-0.1c0.2,0,0.5-0.1,0.6-0.1c0.2-0.1,0.5-0.2,0.9-0.4c0.7-0.3,1.3-0.7,1.8-1.1c0.5-0.5,1.2-1.5,2.2-3c1-1.5,1.7-2.2,2-2.2l2,1.3
			c0.7,0.4,1.4,0.6,2.1,0.6l0.9-0.1c0.4-0.2,0.7-0.4,1-0.8c0.3-0.4,0.6-0.7,0.8-0.8c0.2-0.1,0.5-0.2,0.8-0.2c0.2,0,0.4,0.1,0.6,0.3
			c0.2,0.2,0.3,0.5,0.4,0.9c0,0.5-0.1,0.9-0.2,1.1C36.2,31.9,36,32,35.6,32c-0.3,0-0.7-0.2-1-0.6c-0.1,0-0.2,0.3-0.3,1
			c-0.1,0.7-0.5,1-1.2,1c-0.7,0-1.2-0.1-1.5-0.2l-0.7-0.4c-0.1,0-0.1,0.1-0.2,0.1c0,0-0.1,0.1-0.2,0.2l-1.2,1.8
			c-0.7,1-1.9,1.9-3.9,2.7c-1.9,0.8-3.7,1.2-5.6,1.2c-2.3,0-4.4-0.7-6-2.1c-1.7-1.4-2.5-3.4-2.5-6c0-2.3,0.6-4.1,1.7-5.3
			c1.1-1.2,2.4-1.9,3.9-1.9c0.4,0,0.7,0,0.9,0.1l0.6,0.2l0.4,0.1c0.2,0,0.3-0.1,0.4-0.2c0.1-0.1,0.3-0.3,0.4-0.7l0.2-0.9
			c0-0.2-0.1-0.3-0.3-0.4l-0.6,0.1c-0.2,0-0.3-0.1-0.3-0.3c0-0.4,0.1-0.6,0.2-0.8c0.1-0.2,0.3-0.3,0.6-0.3c0.2,0,0.3,0.1,0.6,0.2
			C20.2,20.8,20.4,21.1,20.6,21.4z M26.3,16c-0.6-0.3-1-0.6-1-1l0-0.6c0,0,0.1,0,0.1,0c0.1-0.1,0.2-0.1,0.3-0.1l5.8,0.2
			c0.4,0,0.7,0.2,1,0.6c0.3,0.4,0.5,0.6,0.6,0.7c0.2,0.1,0.3,0.3,0.3,0.4c-0.2,0.3-0.3,0.6-0.5,0.9c-0.2,0.3-0.3,0.7-0.4,1
			c-0.1,0.2-0.1,0.4-0.2,0.8c-0.1,0.4-0.2,0.8-0.2,1.3l-0.3,7c0,2.4-0.3,3.6-0.8,3.6c-0.3,0-0.7-0.2-1.2-0.5
			c-0.2-0.2-0.4-0.3-0.6-0.4c-0.1-0.1-0.2-0.2-0.3-0.2c-0.1-0.1-0.1-0.3-0.1-0.6l0.1-2l0.1-4.1v-0.6v-0.5v-0.4
			c0-0.9-0.1-1.5-0.2-1.9l-0.3-1c-0.1-0.3-0.1-0.6-0.2-0.8c-0.1-0.2-0.4-0.6-0.8-1C27.4,16.5,27,16.2,26.3,16z M26.7,32.6
			c-0.2,0.3-0.2,0.5-0.2,0.7c0,0.1,0.1,0.2,0.2,0.2c0.1,0,0.3-0.1,0.5-0.2c0.2-0.1,0.4-0.4,0.6-0.8l0.3-0.7
			c-0.1-0.1-0.2-0.1-0.2-0.1c-0.1,0-0.3,0.1-0.6,0.2C27,32.1,26.8,32.3,26.7,32.6z"/>
		<path fill="#ECD09E" stroke="#A57D59" stroke-miterlimit="10" d="M21.4,50.2l1.2-0.6c1.2,0.4,2.3,1,3.3,1.8
			c1.1,0.8,2.2,1.8,3.3,3.1l1.4,1.7c0.9,1.3,1.5,2.4,1.9,3.5c0.4,1.1,0.7,2.1,0.8,2.9c0.1,0.4,0.1,0.7,0.2,1.1
			c0,0.4,0.1,0.8,0.1,1.3c0,1.6-0.3,3-0.8,4.3c-0.6,1.3-1.5,2.3-2.7,3.1c-1.2,0.7-2.5,1.2-3.9,1.4c-1.5,0.3-2.9,0.4-4.5,0.4
			c-1.9,0-3.3-0.2-4.3-0.5c-0.5-0.2-1-0.4-1.4-0.6c-0.4-0.2-0.8-0.4-1.1-0.5c-0.6-0.4-1.2-1-1.7-1.9c-0.5-1-0.9-1.9-1-2.7
			c-0.1-0.4-0.1-0.8-0.2-1.2c0-0.4-0.1-0.8-0.1-1.2l0-1.2l0.1-1.4l-0.5-1.8c0-0.3-0.1-0.6-0.1-0.8c0-0.2,0-0.5,0-0.7
			c0-0.4,0-0.7,0.1-1c0-0.3,0.1-0.6,0.2-0.8c0.1-0.2,0.2-0.5,0.3-0.7c0.1-0.2,0.3-0.5,0.5-0.8c0.3-0.6,0.9-1,1.7-1.5
			c0.8-0.5,1.5-0.7,2.3-0.7c0.5,0,0.9,0.1,1.3,0.2c0.4,0.2,0.7,0.4,0.9,0.7c0.2,0.3,0.4,0.6,0.5,0.8c0.1,0.3,0.2,0.6,0.2,0.8
			l0.1,1.1l0,1.1v0.4c0,0.1,0,0.2,0,0.3c0,0.1,0,0.2,0,0.4c0,0.5,0.1,0.7,0.2,0.8c0.1,0,0.1,0,0.2,0c0.1-0.1,0.1-0.1,0.2-0.2
			c0.1-0.1,0.1-0.2,0.2-0.4c0.1-0.1,0.1-0.3,0.1-0.4c0.3-0.8,0.6-1.3,0.9-1.5l0.6-0.2c0.1,0,0.1,0,0.2,0.1c0.1,0,0.2,0.1,0.4,0.2
			c0.2,0.2,0.3,0.5,0.3,0.8c0,0.2,0,0.3,0,0.3c0,0.1,0,0.1-0.1,0.2l-0.3-0.2c-0.1-0.1-0.2-0.2-0.3-0.2c-0.2,0-0.4,0.1-0.6,0.4
			l-0.6,1.2c-0.2,0.4-0.4,0.8-0.7,1.1c-0.3,0.2-0.6,0.4-0.9,0.4c-0.2,0-0.4,0-0.7-0.2c-0.2-0.1-0.4-0.4-0.6-0.6
			c-0.2-0.3-0.3-0.6-0.4-1c-0.1-0.4-0.1-0.8-0.1-1.3c0-0.6,0-1.1-0.1-1.4c0-0.3-0.2-0.6-0.6-0.6c-0.3,0-0.6,0.3-1,0.9
			c-0.2,0.3-0.3,0.6-0.5,0.9c-0.1,0.4-0.3,0.8-0.5,1.3L14,63.2l-0.6-1.5c-0.2-0.6-0.3-1.1-0.3-1.5l0-0.5l0.2-0.8
			c0.1-0.3,0.2-0.5,0.3-0.8c0.2-0.3,0.3-0.5,0.6-0.7l-0.5,0.4l-0.6,0.6c-0.2,0.2-0.3,0.8-0.3,1.6c0,1.2,0.4,2.5,1.1,4
			c0.8,1.5,1.7,2.7,2.8,3.7c1.1,0.9,2.3,1.7,3.6,2.1c1.3,0.5,2.5,0.7,3.7,0.7c1,0,1.9-0.1,2.7-0.4c0.8-0.3,1.5-0.6,2.2-1.1
			c0.7-0.5,1.2-1.2,1.5-2.1c0.3-0.9,0.5-1.7,0.5-2.6c0-0.7,0-1.1-0.1-1.4l-0.6-2.5c-0.3-1.3-1.4-2.8-3.4-4.6c-2-1.8-3.6-2.8-4.8-3
			c-0.3,0.1-0.6,0.3-0.9,0.4c-0.3,0.1-0.5,0.3-0.8,0.5l-1.4,1.2c-0.5-0.4-0.9-0.7-1.2-0.8c-0.3-0.2-0.7-0.3-1.4-0.3
			c0.3-0.3,0.5-0.6,0.8-0.8c0.3-0.3,0.6-0.5,0.9-0.8c0.3-0.2,0.6-0.5,1-0.8c0.4-0.3,0.8-0.5,1.3-0.8L21.4,50.2z M16.7,71.6
			c1.2,0.6,2.4,0.9,3.8,0.9c-1.6-0.5-2.8-1-3.5-1.6c-0.4-0.3-0.8-0.6-1.2-1c-0.4-0.4-0.8-0.8-1.2-1.4c-0.4-0.8-0.7-1.2-0.8-1.2
			l0.1,0.4l0.3,0.8C14.8,69.9,15.6,70.9,16.7,71.6z"/>
		<path fill="#ECD09E" stroke="#A57D59" stroke-miterlimit="10" d="M28.1,86.4c0.1,0.2,0.2,0.4,0.2,0.7v0.4l-0.4-0.4
			c-0.1-0.1-0.2-0.1-0.3-0.1c-0.2,0-0.3,0.1-0.5,0.2c0,0.1-0.1,0.3-0.1,0.6c0.1,0.2,0.4,0.3,1,0.3c0.6,0,1.1,0,1.6-0.1
			c0.5-0.1,1.1-0.2,1.7-0.5c1.2-0.4,2-0.6,2.5-0.6c0.5,0,0.9,0.1,1.2,0.4c0.3,0.2,0.4,0.6,0.4,1c0,0.7-0.2,1.2-0.7,1.6
			c-0.2,0.2-0.6,0.5-1.1,0.8c-0.5,0.4-1.2,0.8-2.1,1.3c-1.7,1-2.9,1.8-3.5,2.3c-0.4,0.3-0.7,0.5-1,0.8c-0.3,0.2-0.6,0.5-1,0.9
			c-0.3,0.2-0.6,0.6-1.1,1c-0.4,0.4-1,1-1.6,1.7c-0.5,0.6-1,1.2-1.5,1.9c-0.5,0.6-0.9,1.3-1.4,2c-0.8,1.3-1.2,2.5-1.2,3.5
			c0,0.7,0.3,1.3,0.8,1.8c0.5,0.5,0.8,0.9,0.8,1c0,0.2-0.2,0.4-0.5,0.7c-0.3,0.3-0.9,0.4-1.9,0.4c-1.5,0-2.9-0.3-4.1-1l-0.7-0.3
			l-0.5-0.2c-0.3,0-0.4,0.1-0.4,0.2c0,0.1,0.1,0.3,0.4,0.4l0.2,0.5c0.1,0.2,0.2,0.4,0.2,0.6c0,0.4-0.3,0.6-0.8,0.6
			c-0.2,0-0.4-0.1-0.5-0.1c-0.1,0-0.2-0.1-0.3-0.1l0.2-0.2c0.1-0.1,0.2-0.2,0.2-0.3c0-0.2-0.2-0.4-0.6-0.6c-0.4-0.3-0.6-0.6-0.6-1
			c0-0.3,0.2-0.6,0.5-0.8c0.3-0.2,0.6-0.3,0.9-0.3H14c1.2,0,2-0.1,2.2-0.2c0.2-0.2,0.6-1,1.2-2.5c0.3-0.8,0.6-1.5,1-2.1
			c0.4-0.6,0.8-1.3,1.2-1.8c0.4-0.6,1.1-1.4,2.1-2.4c0.9-1,2.1-2.3,3.6-3.9l-1.4-0.8l-2.4-1.4c-0.9-0.5-1.7-0.8-2.4-1l0.5,7.5l0.1,1
			c0,0.3-0.1,0.6-0.3,0.9l-0.9,1.5l-1.2,2.4v-3.2l0-3.1c0-5.4-0.3-8.2-0.8-8.5l-1-0.5c-0.1-0.1-0.1-0.2-0.1-0.2
			c0-0.1,0.1-0.4,0.3-0.8c0.2-0.4,0.8-0.6,1.5-0.6c0.4,0,0.7,0,1,0.1c0.1,0,0.3,0.1,0.4,0.1c0.2,0.1,0.3,0.1,0.5,0.2
			c0.1,0,0.2,0.1,0.3,0.2c0.2,0.1,0.4,0.2,0.6,0.3c0.9,0.4,1.6,0.7,2,1l4.9,3.1l1.2-1.3l0.9-0.9c0.2-0.2,0.3-0.3,0.3-0.4
			c-0.1,0-0.2,0-0.3,0c-0.1,0-0.2,0-0.2,0l-0.7,0l-0.9-0.1c-0.3-0.1-0.5-0.2-0.8-0.4c-0.6-0.3-1-0.8-1-1.5c0-0.5,0.2-0.9,0.5-1.2
			c0.4-0.3,0.7-0.4,1-0.4l0.4,0C27.8,86.1,28,86.2,28.1,86.4z M32.6,98.3c0.7,0.9,1.3,1.9,1.8,2.9c1,2,1.6,3.7,1.6,5.2
			c0,1.6-0.4,2.6-1.1,3.1c-0.4,0.2-0.7,0.4-1,0.6c-0.3,0.2-0.6,0.3-0.9,0.4c-0.5,0.2-1,0.3-1.6,0.3c-0.7,0-1.3-0.1-2.1-0.4
			c-0.7-0.2-1.5-0.6-2.3-1.2l-1.8-1.4c-0.4-0.3-0.7-0.4-0.8-0.4c-0.2,0.1-0.3,0.2-0.3,0.4l0.2,0.6c0.1,0.1,0.1,0.4,0.1,0.8
			c0,0.3-0.1,0.5-0.4,0.7c-0.2,0.1-0.4,0.2-0.7,0.2c-0.4,0-0.6-0.1-0.8-0.4c-0.1-0.1,0-0.2,0.2-0.3c0.1,0,0.3-0.1,0.4-0.3
			c0-0.1-0.1-0.4-0.2-0.7c-0.2-0.3-0.3-0.6-0.3-0.9c0-0.5,0.1-0.9,0.4-1.2c0.3-0.4,0.7-0.5,1.2-0.5c0.2,0,0.4,0.1,0.7,0.2
			c0.3,0,0.9,0.4,1.8,1.1c0.9,0.7,1.8,1,2.6,1h0.4c0.8,0,1.4-0.4,1.9-1c0.4-0.6,0.6-1.4,0.6-2.3c0-1.2-0.3-2.4-0.9-3.7
			c-0.6-1.4-1.3-2.5-2.3-3.5l-1.8-1.6l1.7-1.3l1.3,1.4C31,96.4,31.9,97.4,32.6,98.3z"/>
		<path fill="#ECD09E" stroke="#A57D59" stroke-miterlimit="10" d="M27.8,122.3c1.3,0,2,0,2.2,0c0.5,0,1.4,0.2,2.5,0.6
			c0.5,0.2,0.8,0.4,0.9,0.7c0.2,0.2,0.3,0.5,0.3,0.8c0,0.4-0.2,0.7-0.5,1c-0.3,0.3-0.8,0.6-1.6,0.9c-0.7,0.2-1.3,0.5-1.9,0.8
			c-0.6,0.3-0.9,0.6-0.9,0.7c0,0.2,0.5,0.3,1.5,0.4c1,0,1.5,0.3,1.5,0.9l0,0.4c0,0.1-0.2,0.3-0.6,0.5l-0.9,0.3
			c-0.1,0-0.2-0.1-0.1-0.3l0.2-0.7c0-0.2-0.2-0.4-0.6-0.4c-1,0.2-1.7,0.3-2.2,0.3c-0.5,0-0.8-0.1-1-0.2c-0.2-0.2-0.3-0.4-0.4-0.6
			l-0.1-0.6c0-0.4,0.3-0.9,1-1.5c0.7-0.6,1-1,1-1.1c0-0.2-0.2-0.5-0.5-0.6c-0.1-0.1-0.4-0.1-0.8-0.2c-0.4,0-1-0.1-1.8-0.1l-8.6,0.2
			l-0.3,7.5c-0.4,0-0.8,0.1-1.2,0.2c-0.2,0-0.4,0.1-0.6,0.2c-0.3,0.1-0.6,0.3-0.9,0.5l-0.1-4.6c0-1.9-0.3-3-0.9-3.4
			c-0.6-0.3-0.9-0.8-0.9-1.5c0-0.5,0-0.8,0-0.9c0-0.1,0.3-0.2,1-0.2l3.1-0.2l6.7-0.1C24.7,122.2,26.5,122.2,27.8,122.3z M22.2,128.2
			C22.2,128.2,22.2,128.2,22.2,128.2l0.1,0.2l-0.4,0.2c-0.2,0.1-0.4,0.2-0.4,0.4c0,0.1,0.6,0.3,1.8,0.5c1.1,0.2,1.8,0.5,1.9,0.9
			c0.1,0.4,0.2,0.7,0.2,0.9c0,0.2-0.1,0.7-0.4,1.4s-1,1.2-2.4,1.4c-0.7,0.1-1.5,0.2-2.6,0.3c-1.1,0.1-2.3,0.1-3.8,0.1v1.6
			c0,1.2,0.1,2,0.2,2.3c0.2,0.4,0.8,1,1.8,1.9c0.5,0.5,1.1,0.9,1.8,1.3c0.7,0.4,1.4,0.7,2.2,0.9c0.7,0.2,1.5,0.4,2.1,0.6
			c0.7,0.1,1.4,0.3,2.1,0.4l3,0.3l2.1,0.1c1,0,1.7-0.1,2.1-0.2c0.4-0.1,0.7-0.4,0.7-0.8c0.1-0.5-0.4-0.9-1.5-1.4
			c-1.1-0.5-1.6-1.1-1.6-1.8c0-1,0.9-1.6,2.6-2c1.7-0.3,2.6-0.7,2.7-1c0-0.2-0.1-0.4-0.2-0.6c-0.2-0.2-0.3-0.5-0.3-0.7
			c0-0.3,0.1-0.5,0.2-0.6c0.2-0.1,0.3-0.2,0.5-0.2c0.2,0,0.3,0.2,0.3,0.5c0,0.3,0.3,0.6,1,0.8c0.7,0.2,1.1,0.5,1.3,0.7
			c0.2,0.2,0.3,0.6,0.3,1c0,0.7-0.2,1.1-0.5,1.4c-0.1,0.1-0.3,0.2-0.6,0.3c-0.2,0.1-0.7,0.2-1.2,0.4c-0.6,0.1-0.9,0.3-1.1,0.4
			c-0.2,0.1-0.3,0.3-0.3,0.5l0,0.4c0,0.1,0.3,0.4,0.9,0.8c0.6,0.3,1,0.8,1,1.5c0,0.9-0.4,1.5-1.3,1.9c-0.9,0.4-2.3,0.6-4.3,0.6
			l-15.6-0.2c-0.4,0-0.7-0.2-0.9-0.7c-0.1-0.3-0.2-0.6-0.4-0.8c-0.2-0.2-0.4-0.3-0.5-0.4c-0.2-0.1-0.4-0.2-0.5-0.3
			c-0.2-0.1-0.2-0.2-0.3-0.4l0.2-3.6L16,141l0.5,0.4l0.5,0.7c0.2,0.4,0.5,0.7,1,1c0.2,0.2,0.5,0.3,0.7,0.4c0.3,0.1,0.6,0.1,0.9,0.1
			c0.3,0,0.5,0,0.6,0l-0.8-0.6l-2-1.4l-3.2-2.4c-1.2-1-1.7-2.1-1.7-3.3v-0.4c0.1-1.4,0.7-2.3,1.8-2.6c0.5-0.2,1.1-0.4,1.8-0.5
			c0.7-0.2,1.4-0.3,2.3-0.4c1.7-0.3,2.6-0.7,2.6-1.2c0-0.1,0-0.2-0.1-0.3c-0.1-0.1-0.2-0.3-0.2-0.4c-0.1-0.1-0.2-0.3-0.3-0.4
			c-0.1-0.1-0.1-0.3-0.2-0.4c0-0.3,0.1-0.6,0.4-0.8c0.3-0.3,0.6-0.4,1-0.4L22,128C22.1,128.1,22.1,128.1,22.2,128.2z"/>
		<path fill="#ECD09E" stroke="#A57D59" stroke-miterlimit="10" d="M28.5,158.2c0.9,0,1.7,0.1,2.3,0.2c1.2,0.1,2,0.9,2.3,2.3v0.4
			c0,1.6-1.2,3.4-3.7,5.4l1.7,1.8c0.2,0.2,0.4,0.5,0.7,1c0.3,0.4,0.7,1,1.2,1.7c0.8,1.3,1.4,2.5,1.8,3.7c0.4,1.2,0.6,2.3,0.6,3.5
			c0,1.7-0.3,2.9-1,3.6c-0.7,0.7-1.4,1.1-2.3,1.2l-0.5,0l-0.3,0c-0.2,0-0.7-0.1-1.5-0.4c-0.7-0.3-1.3-1.1-1.7-2.5
			c-0.4-1.4-0.8-2.1-1.3-2c-0.2,0.1-0.4,0.2-0.4,0.4l0.2,0.6c0.1,0.4,0.2,0.6,0.2,0.8l-0.1,0.4c-0.1,0.2-0.2,0.4-0.4,0.5
			c-0.2,0.1-0.5,0.2-0.7,0.2c-0.2,0-0.4-0.1-0.6-0.2c-0.2-0.1-0.3-0.3-0.3-0.7c-0.1-0.5,0.2-0.8,0.9-0.9c0-0.2,0-0.5,0-0.7
			c0-0.2,0.1-0.4,0.1-0.6c0.1-0.2,0.2-0.3,0.4-0.4c0.2-0.1,0.4-0.1,0.8-0.1c0.6,0,1.3,0.4,1.9,1.3c0.6,0.8,1.2,1.3,1.6,1.3
			c0.2,0,0.6-0.1,1.1-0.3c0.5-0.2,0.7-1,0.7-2.1c0-1-0.2-2.1-0.7-3.4c-0.5-1.3-1.3-2.8-2.6-4.4c-1.3-1.7-2.5-2.8-3.8-3.4
			c-1.3-0.6-3-1-5.3-1.2c0.6-0.3,1.1-0.5,1.7-0.8c0.5-0.3,1-0.5,1.5-0.8c0.4,0.1,0.9,0.2,1.5,0.4c0.4,0.2,0.8,0.3,1,0.4
			s0.4,0.2,0.5,0.3c0.5,0.2,0.8,0.4,1,0.4c0.5,0,0.9-0.3,1.2-0.8c0.3-0.5,0.5-0.9,0.6-1.1c0-0.1,0.1-0.3,0.1-0.4
			c0-0.2,0-0.3,0.1-0.5c0-0.6-0.2-1.1-0.7-1.5c-0.5-0.4-1.3-0.6-2.5-0.6l-3.2,0c-0.9,0-1.8,0.1-2.7,0.2l-0.3,2.3l0,7.6l3.7-2.3
			l1.7-1.2c0.3,0.1,0.6,0.3,0.7,0.4l0.6,0.4c0.2,0.2,0.4,0.3,0.4,0.4c0,0.1-0.1,0.1-0.1,0.2c0,0.1-0.1,0.1-0.3,0.2l-6.3,4.1l0.2,9.1
			l-4.8,0.1c-0.4,0-0.8-0.2-1-0.5c-0.3-0.3-0.4-0.8-0.4-1.3l0.1-1.2c0-0.5-0.2-0.8-0.7-0.8c-0.4,0.1-0.5,0.3-0.5,0.6
			c0,0.3,0.1,0.7,0.3,1.3c0.2,0.5,0.3,0.9,0.3,1c0,0.4-0.1,0.6-0.4,0.9c-0.2,0.2-0.5,0.3-0.8,0.3c-0.3,0-0.5-0.1-0.8-0.3
			c-0.3-0.2-0.4-0.5-0.4-0.9c0-0.5,0.2-0.8,0.7-0.8c0.2,0,0.4,0.1,0.7,0.2l-0.6-0.9c-0.1-0.2-0.1-0.4-0.2-0.7c0-0.3,0.1-0.6,0.4-0.9
			c0.3-0.3,0.7-0.4,1.3-0.4c0.4,0,0.8,0.1,1.2,0.2c0.4,0.2,0.6,0.5,0.8,1c0.1,0.5,0.3,0.7,0.6,0.8c0.4,0,0.7-0.3,0.8-1
			c0.1-0.3,0.1-0.9,0.2-1.6c0-0.7,0.1-1.6,0.1-2.7c0-2.1,0-3.9-0.1-5.4c-0.1-1.5-0.1-2.8-0.2-3.8c-0.1-1-0.2-1.8-0.4-2.5
			c-0.1-0.7-0.3-1.3-0.4-1.7l-0.6-1.2l0.6-0.6c0.2-0.2,0.4-0.3,0.5-0.4l8.8-0.2C26.6,158.2,27.6,158.2,28.5,158.2z"/>
	</g>
	<g>
		<path fill="#ECD09E" stroke="#A57D59" stroke-miterlimit="10" d="M338.6,485.4c-0.2-0.3-0.3-0.7-0.3-1.2c0-0.8,0.3-1.7,1-2.7
			l-0.1-0.5l-0.1-0.5l0.1-1.3c0.1-0.7,0.2-1.4,0.6-2.1l0.4-1.4c0-0.4-0.1-0.7-0.2-0.9c-0.1-0.2-0.3-0.3-0.5-0.3
			c-0.2,0-0.5,0.5-0.7,1.4c-0.2,0.9-0.7,1.3-1.4,1.3c-0.3,0-0.5-0.1-0.7-0.2c-0.2-0.2-0.3-0.3-0.3-0.6c0-0.5,0.2-0.7,0.7-0.7
			c0.2,0,0.3,0.2,0.4,0.3c0.1,0.2,0.2,0.2,0.4,0.1c0.1-0.1,0.3-0.7,0.4-1.8c0.1-1.1,0.6-1.6,1.3-1.6c0.9,0,1.6,1.2,1.9,3.5
			c0.3,2.3,1,3.5,2,3.5l0.5-0.1c0.5-0.1,0.9-0.4,1.1-0.7c0.2-0.3,0.4-0.6,0.4-1.1l-0.1-0.6c-0.3,0.5-0.6,1-1,1.4
			c-0.4,0.4-0.7,0.6-0.9,0.7c-0.3,0-0.5-0.1-0.7-0.2c-0.2-0.1-0.4-0.3-0.5-0.6l-0.2-0.5c0-0.1,0.1-0.1,0.2-0.2
			c0.1-0.1,0.2-0.2,0.4-0.3c0.1-0.1,0.3-0.3,0.4-0.5c0.2-0.2,0.3-0.4,0.4-0.6c0.1-0.2,0.1-0.3,0.2-0.4c0.1-0.1,0.1-0.3,0.2-0.7
			l0.1-1c0-1.1-0.4-2-1.2-2.7c-0.8-0.7-1.8-1.1-3-1.1l-1,0.1c-0.2,0-0.5,0.1-0.6,0.1c-0.2,0.1-0.5,0.2-0.9,0.4
			c-0.7,0.3-1.3,0.7-1.8,1.1c-0.5,0.5-1.2,1.5-2.2,3c-1.1,1.5-1.7,2.2-2,2.2l-2-1.3c-0.7-0.4-1.4-0.6-2.1-0.6l-0.9,0.1
			c-0.4,0.2-0.7,0.4-1,0.8c-0.3,0.4-0.6,0.7-0.8,0.8c-0.2,0.1-0.5,0.2-0.8,0.2c-0.2,0-0.4-0.1-0.6-0.3c-0.2-0.2-0.3-0.5-0.4-0.9
			c0-0.5,0.1-0.9,0.2-1.1c0.1-0.2,0.3-0.3,0.6-0.3c0.3,0,0.7,0.2,1,0.6c0.1,0,0.2-0.3,0.3-1c0.1-0.7,0.5-1,1.2-1
			c0.7,0,1.2,0.1,1.5,0.2l0.7,0.4c0.1,0,0.1-0.1,0.2-0.1c0,0,0.1-0.1,0.2-0.2l1.2-1.8c0.7-1,1.9-1.9,3.9-2.7
			c1.9-0.8,3.7-1.2,5.6-1.2c2.3,0,4.4,0.7,6,2.1c1.7,1.4,2.5,3.4,2.5,6c0,2.3-0.6,4.1-1.7,5.3c-1.1,1.2-2.4,1.9-3.9,1.9
			c-0.4,0-0.7,0-0.9-0.1l-0.6-0.2l-0.4-0.1c-0.2,0-0.3,0.1-0.4,0.2c-0.1,0.1-0.3,0.3-0.4,0.7l-0.2,0.9c0,0.2,0.1,0.3,0.3,0.4
			l0.6-0.1c0.2,0,0.3,0.1,0.3,0.3c0,0.4-0.1,0.6-0.2,0.8c-0.1,0.2-0.3,0.3-0.6,0.3c-0.2,0-0.3-0.1-0.6-0.2
			C339,486,338.8,485.7,338.6,485.4z M332.9,490.8c0.6,0.3,1,0.6,1,1l0,0.6c0,0-0.1,0-0.1,0c-0.1,0.1-0.2,0.1-0.3,0.1l-5.8-0.2
			c-0.4,0-0.7-0.2-1-0.6c-0.3-0.4-0.5-0.6-0.6-0.7c-0.2-0.1-0.3-0.3-0.3-0.4c0.2-0.3,0.3-0.6,0.5-0.9c0.2-0.3,0.3-0.7,0.4-1
			c0.1-0.2,0.1-0.4,0.2-0.8c0.1-0.4,0.2-0.8,0.2-1.3l0.3-7c0-2.4,0.3-3.6,0.8-3.6c0.3,0,0.7,0.2,1.2,0.5c0.2,0.2,0.4,0.3,0.6,0.4
			c0.1,0.1,0.2,0.2,0.3,0.2c0.1,0.1,0.1,0.3,0.1,0.6l-0.1,2l-0.1,4.1l0,0.6l0,0.5l0,0.4c0,0.9,0.1,1.5,0.2,1.9l0.3,1
			c0.1,0.3,0.1,0.6,0.2,0.8c0.1,0.2,0.4,0.6,0.8,1C331.8,490.3,332.2,490.6,332.9,490.8z M332.5,474.2c0.2-0.3,0.2-0.5,0.2-0.7
			c0-0.1-0.1-0.2-0.2-0.2c-0.1,0-0.3,0.1-0.5,0.2c-0.2,0.1-0.4,0.4-0.6,0.8l-0.3,0.7c0.1,0.1,0.2,0.1,0.2,0.1c0.1,0,0.3-0.1,0.6-0.2
			C332.1,474.7,332.3,474.5,332.5,474.2z"/>
		<path fill="#ECD09E" stroke="#A57D59" stroke-miterlimit="10" d="M337.8,456.6l-1.2,0.6c-1.2-0.4-2.3-1-3.3-1.8
			c-1.1-0.8-2.2-1.8-3.3-3.1l-1.4-1.7c-0.9-1.3-1.5-2.4-1.9-3.5c-0.4-1.1-0.7-2.1-0.8-2.9c-0.1-0.4-0.1-0.7-0.2-1.1
			c0-0.4-0.1-0.8-0.1-1.3c0-1.6,0.3-3,0.8-4.3c0.6-1.3,1.5-2.3,2.7-3.1c1.2-0.7,2.5-1.2,3.9-1.4c1.5-0.3,2.9-0.4,4.5-0.4
			c1.9,0,3.3,0.2,4.3,0.5c0.5,0.2,1,0.4,1.4,0.6c0.4,0.2,0.8,0.4,1.1,0.5c0.6,0.4,1.2,1,1.7,1.9c0.5,1,0.9,1.9,1,2.7
			c0.1,0.4,0.1,0.8,0.2,1.2c0,0.4,0.1,0.8,0.1,1.2l0,1.2l-0.1,1.4l0.5,1.8c0,0.3,0.1,0.6,0.1,0.8c0,0.2,0,0.5,0,0.7
			c0,0.4,0,0.7-0.1,1c0,0.3-0.1,0.6-0.2,0.8c-0.1,0.2-0.2,0.5-0.3,0.7c-0.1,0.2-0.3,0.5-0.5,0.8c-0.3,0.6-0.9,1-1.7,1.5
			c-0.8,0.5-1.5,0.7-2.3,0.7c-0.5,0-0.9-0.1-1.3-0.2c-0.4-0.2-0.7-0.4-0.9-0.7c-0.2-0.3-0.4-0.6-0.5-0.8c-0.1-0.3-0.2-0.6-0.2-0.8
			l-0.1-1.1l0-1.1l0-0.4c0-0.1,0-0.2,0-0.3c0-0.1,0-0.2,0-0.4c0-0.5-0.1-0.7-0.2-0.8c-0.1,0-0.1,0-0.2,0c-0.1,0.1-0.1,0.1-0.2,0.2
			c-0.1,0.1-0.1,0.2-0.2,0.4c-0.1,0.1-0.1,0.3-0.1,0.4c-0.3,0.8-0.6,1.3-0.9,1.5l-0.6,0.2c-0.1,0-0.1,0-0.2-0.1
			c-0.1,0-0.2-0.1-0.4-0.2c-0.2-0.2-0.3-0.5-0.3-0.8c0-0.2,0-0.3,0-0.3c0-0.1,0-0.1,0.1-0.2l0.3,0.2c0.1,0.1,0.2,0.2,0.3,0.2
			c0.2,0,0.4-0.1,0.6-0.4l0.6-1.2c0.2-0.4,0.4-0.8,0.7-1.1c0.3-0.2,0.6-0.3,0.9-0.4c0.2,0,0.4,0,0.7,0.2c0.2,0.1,0.4,0.4,0.6,0.6
			c0.2,0.3,0.3,0.6,0.4,1c0.1,0.4,0.1,0.8,0.1,1.3c0,0.6,0,1.1,0.1,1.4c0,0.3,0.2,0.6,0.6,0.6c0.3,0,0.6-0.3,1-0.9
			c0.2-0.3,0.3-0.6,0.5-0.9c0.1-0.3,0.3-0.8,0.5-1.3l0.9-2.7l0.6,1.5c0.2,0.6,0.3,1.1,0.3,1.5l0,0.5l-0.2,0.8
			c-0.1,0.3-0.2,0.5-0.3,0.8c-0.2,0.3-0.3,0.5-0.6,0.7l0.5-0.4l0.6-0.6c0.2-0.2,0.3-0.8,0.3-1.6c0-1.2-0.4-2.5-1.1-4
			c-0.8-1.5-1.7-2.7-2.8-3.7c-1.1-0.9-2.3-1.7-3.6-2.1c-1.3-0.5-2.5-0.7-3.7-0.7c-1,0-1.9,0.1-2.7,0.4c-0.8,0.3-1.5,0.6-2.2,1.1
			c-0.7,0.5-1.2,1.2-1.5,2.1c-0.4,0.9-0.5,1.7-0.5,2.6c0,0.7,0,1.1,0.1,1.4l0.6,2.5c0.3,1.3,1.4,2.9,3.4,4.6c2,1.8,3.6,2.8,4.8,3
			c0.3-0.1,0.6-0.3,0.9-0.4c0.3-0.1,0.5-0.3,0.8-0.5l1.4-1.2c0.5,0.4,0.9,0.7,1.2,0.8c0.3,0.2,0.7,0.3,1.4,0.3
			c-0.3,0.3-0.5,0.6-0.8,0.8c-0.3,0.3-0.6,0.5-0.9,0.8c-0.3,0.2-0.6,0.5-1,0.8c-0.4,0.3-0.8,0.5-1.3,0.8L337.8,456.6z M342.5,435.2
			c-1.2-0.6-2.4-0.9-3.8-0.9c1.6,0.5,2.8,1,3.5,1.6c0.4,0.3,0.8,0.6,1.2,1c0.4,0.4,0.8,0.8,1.2,1.4c0.4,0.8,0.7,1.2,0.8,1.2
			l-0.1-0.4l-0.3-0.8C344.4,436.9,343.5,435.9,342.5,435.2z"/>
		<path fill="#ECD09E" stroke="#A57D59" stroke-miterlimit="10" d="M331.1,420.4c-0.1-0.2-0.2-0.4-0.2-0.7l0-0.4l0.4,0.4
			c0.1,0.1,0.2,0.1,0.3,0.1c0.2,0,0.3-0.1,0.5-0.2c0-0.1,0.1-0.3,0.1-0.6c-0.1-0.2-0.4-0.3-1-0.3c-0.6,0-1.1,0-1.6,0.1
			c-0.5,0.1-1.1,0.2-1.7,0.5c-1.2,0.4-2,0.6-2.5,0.6c-0.5,0-0.9-0.1-1.2-0.4c-0.3-0.2-0.4-0.6-0.4-1c0-0.7,0.2-1.2,0.7-1.6
			c0.2-0.2,0.6-0.5,1.1-0.8c0.5-0.3,1.2-0.8,2.1-1.3c1.7-1,2.9-1.8,3.5-2.3c0.4-0.3,0.7-0.5,1-0.8c0.3-0.2,0.6-0.5,1-0.9
			c0.3-0.2,0.6-0.6,1.1-1c0.4-0.4,1-1,1.6-1.7c0.5-0.6,1-1.2,1.5-1.9c0.5-0.6,0.9-1.3,1.4-2c0.8-1.3,1.2-2.5,1.2-3.5
			c0-0.7-0.3-1.3-0.8-1.8c-0.5-0.5-0.8-0.9-0.8-1c0-0.2,0.2-0.4,0.5-0.7c0.3-0.3,0.9-0.4,1.9-0.4c1.5,0,2.9,0.3,4.1,1l0.7,0.3
			l0.5,0.2c0.3,0,0.4-0.1,0.4-0.2c0-0.1-0.1-0.3-0.4-0.4l-0.2-0.5c-0.1-0.2-0.2-0.4-0.2-0.6c0-0.4,0.3-0.6,0.8-0.6
			c0.2,0,0.4,0.1,0.5,0.1c0.1,0,0.2,0.1,0.3,0.1l-0.2,0.2c-0.1,0.1-0.2,0.2-0.2,0.3c0,0.2,0.2,0.4,0.6,0.6c0.4,0.3,0.6,0.6,0.6,1
			c0,0.3-0.2,0.6-0.5,0.8c-0.3,0.2-0.6,0.3-0.9,0.3l-1.3,0c-1.2,0-2,0.1-2.2,0.2c-0.2,0.2-0.6,1-1.2,2.5c-0.3,0.8-0.6,1.5-1,2.1
			c-0.4,0.6-0.8,1.3-1.2,1.8c-0.4,0.6-1.1,1.4-2.1,2.4c-0.9,1-2.1,2.3-3.6,3.9l1.4,0.8l2.4,1.4c0.9,0.5,1.7,0.8,2.4,1l-0.5-7.5
			l-0.1-1c0-0.3,0.1-0.6,0.3-0.9l0.9-1.5l1.2-2.4l0,3.2l0,3.1c0,5.4,0.3,8.2,0.8,8.5l1,0.5c0.1,0.1,0.1,0.2,0.1,0.2
			c0,0.1-0.1,0.4-0.3,0.8c-0.2,0.4-0.8,0.6-1.5,0.6c-0.4,0-0.7,0-1-0.1c-0.1,0-0.3-0.1-0.4-0.1c-0.2-0.1-0.3-0.1-0.5-0.2
			c-0.1,0-0.2-0.1-0.3-0.2c-0.2-0.1-0.4-0.2-0.6-0.3c-0.9-0.4-1.6-0.7-2-1l-4.9-3.1l-1.2,1.3l-0.9,0.9c-0.2,0.2-0.3,0.3-0.3,0.4
			c0.1,0,0.2,0,0.3,0c0.1,0,0.2,0,0.2,0l0.7,0l0.9,0.1c0.3,0.1,0.5,0.2,0.8,0.4c0.6,0.3,1,0.8,1,1.5c0,0.5-0.2,0.9-0.5,1.2
			c-0.4,0.3-0.7,0.4-1,0.4l-0.4,0C331.4,420.7,331.2,420.6,331.1,420.4z M326.6,408.5c-0.7-0.9-1.3-1.9-1.8-2.9
			c-1-2-1.6-3.7-1.6-5.2c0-1.6,0.4-2.6,1.1-3.1c0.4-0.2,0.7-0.4,1-0.6c0.3-0.2,0.6-0.3,0.9-0.4c0.5-0.2,1-0.3,1.6-0.3
			c0.7,0,1.3,0.1,2.1,0.4c0.7,0.2,1.5,0.6,2.3,1.2l1.8,1.4c0.4,0.3,0.7,0.4,0.8,0.4c0.2-0.1,0.3-0.2,0.3-0.4l-0.2-0.6
			c-0.1-0.1-0.1-0.4-0.1-0.8c0-0.3,0.1-0.5,0.4-0.7c0.2-0.1,0.4-0.2,0.7-0.2c0.4,0,0.6,0.1,0.8,0.4c0.1,0.1,0,0.2-0.2,0.3
			c-0.1,0-0.3,0.1-0.4,0.3c0,0.1,0.1,0.4,0.2,0.7c0.2,0.3,0.3,0.6,0.3,0.9c0,0.5-0.1,0.9-0.4,1.2c-0.3,0.3-0.7,0.5-1.2,0.5
			c-0.2,0-0.4-0.1-0.7-0.2c-0.3,0-0.9-0.4-1.8-1.1c-0.9-0.7-1.8-1-2.6-1l-0.4,0c-0.8,0-1.4,0.3-1.9,1c-0.4,0.6-0.6,1.4-0.6,2.3
			c0,1.2,0.3,2.4,0.9,3.7c0.6,1.4,1.3,2.5,2.3,3.6l1.8,1.6l-1.7,1.3l-1.3-1.4C328.1,410.4,327.3,409.4,326.6,408.5z"/>
		<path fill="#ECD09E" stroke="#A57D59" stroke-miterlimit="10" d="M331.4,384.5c-1.3,0-2,0-2.2,0c-0.5,0-1.4-0.2-2.5-0.6
			c-0.5-0.2-0.8-0.4-0.9-0.7c-0.2-0.2-0.3-0.5-0.3-0.8c0-0.4,0.2-0.7,0.5-1c0.3-0.3,0.8-0.6,1.6-0.9c0.7-0.2,1.3-0.5,1.9-0.8
			s0.9-0.6,0.9-0.7c0-0.2-0.5-0.3-1.5-0.4c-1,0-1.5-0.3-1.5-0.9l0-0.4c0-0.1,0.2-0.3,0.6-0.5l0.9-0.3c0.1,0,0.2,0.1,0.1,0.3
			l-0.2,0.7c0,0.2,0.2,0.4,0.6,0.4c1-0.2,1.7-0.3,2.2-0.3c0.5,0,0.8,0.1,1,0.2c0.2,0.2,0.3,0.4,0.4,0.6l0.1,0.6c0,0.4-0.3,0.9-1,1.5
			c-0.7,0.6-1,1-1,1.1c0,0.2,0.2,0.5,0.5,0.6c0.1,0.1,0.4,0.1,0.8,0.2c0.4,0,1,0.1,1.8,0.1l8.6-0.2l0.3-7.5c0.4,0,0.8-0.1,1.2-0.2
			c0.2,0,0.4-0.1,0.6-0.2c0.3-0.1,0.6-0.3,0.9-0.5l0.1,4.6c0,1.9,0.3,3,0.9,3.4c0.6,0.3,0.9,0.8,0.9,1.5c0,0.5,0,0.8,0,0.9
			c0,0.1-0.3,0.2-1,0.2l-3.1,0.2l-6.7,0.1C334.5,384.6,332.7,384.6,331.4,384.5z M337,378.6C337,378.6,337,378.6,337,378.6l-0.1-0.2
			l0.4-0.2c0.2-0.1,0.4-0.2,0.4-0.4c0-0.1-0.6-0.3-1.8-0.5c-1.1-0.2-1.8-0.5-1.9-0.9c-0.1-0.4-0.2-0.7-0.2-0.9
			c0-0.2,0.1-0.7,0.4-1.4c0.2-0.7,1.1-1.2,2.4-1.4c0.7-0.1,1.5-0.2,2.6-0.3c1.1-0.1,2.3-0.1,3.8-0.1l0-1.6c0-1.2-0.1-2-0.2-2.3
			c-0.2-0.4-0.8-1-1.8-1.9c-0.5-0.5-1.1-0.9-1.8-1.3c-0.7-0.4-1.4-0.7-2.2-0.9c-0.7-0.2-1.5-0.4-2.1-0.6c-0.7-0.1-1.4-0.3-2.1-0.4
			l-3-0.3l-2.1-0.1c-1,0-1.7,0.1-2.1,0.2c-0.4,0.1-0.7,0.4-0.7,0.8c-0.1,0.5,0.4,0.9,1.5,1.4c1.1,0.5,1.6,1.1,1.6,1.8
			c0,1-0.9,1.6-2.6,2c-1.7,0.3-2.6,0.7-2.7,1c0,0.2,0.1,0.4,0.2,0.6c0.2,0.2,0.3,0.5,0.3,0.7c0,0.3-0.1,0.5-0.2,0.6
			c-0.2,0.1-0.3,0.2-0.5,0.2c-0.2,0-0.3-0.2-0.3-0.5c0-0.3-0.3-0.6-1-0.8c-0.7-0.2-1.1-0.5-1.3-0.7c-0.2-0.2-0.3-0.6-0.3-1
			c0-0.7,0.2-1.1,0.5-1.4c0.1-0.1,0.3-0.2,0.6-0.3c0.2-0.1,0.7-0.2,1.2-0.4c0.6-0.1,0.9-0.3,1.1-0.4c0.2-0.1,0.3-0.3,0.3-0.5l0-0.4
			c0-0.1-0.3-0.4-0.9-0.8c-0.6-0.3-1-0.8-1-1.5c0-0.9,0.4-1.5,1.3-1.9c0.9-0.4,2.3-0.6,4.3-0.6l15.6,0.3c0.4,0,0.7,0.2,0.9,0.7
			c0.1,0.3,0.2,0.6,0.4,0.8c0.2,0.2,0.4,0.3,0.5,0.4c0.2,0.1,0.4,0.2,0.5,0.3c0.2,0.1,0.2,0.2,0.3,0.4l-0.2,3.6l-2.3-1.7l-0.5-0.4
			l-0.5-0.7c-0.2-0.4-0.5-0.7-1-1c-0.2-0.2-0.5-0.3-0.7-0.4c-0.3-0.1-0.6-0.1-0.9-0.1c-0.3,0-0.5,0-0.6,0l0.8,0.6l2,1.4l3.2,2.4
			c1.2,1,1.7,2.1,1.7,3.3l0,0.4c-0.1,1.4-0.7,2.3-1.8,2.6c-0.5,0.2-1.1,0.4-1.8,0.5c-0.7,0.2-1.4,0.3-2.3,0.4
			c-1.7,0.3-2.6,0.7-2.6,1.2c0,0.1,0,0.2,0.1,0.3c0.1,0.1,0.2,0.3,0.2,0.4c0.1,0.1,0.2,0.3,0.3,0.4c0.1,0.1,0.1,0.3,0.2,0.4
			c0,0.3-0.1,0.6-0.4,0.8c-0.3,0.3-0.6,0.4-1,0.4l-0.4-0.1C337.2,378.7,337.1,378.7,337,378.6z"/>
		<path fill="#ECD09E" stroke="#A57D59" stroke-miterlimit="10" d="M330.7,348.6c-0.9,0-1.7-0.1-2.3-0.2c-1.2-0.1-2-0.9-2.3-2.3
			l0-0.4c0-1.6,1.2-3.4,3.7-5.4l-1.7-1.8c-0.2-0.2-0.4-0.5-0.7-1c-0.3-0.4-0.7-1-1.2-1.7c-0.8-1.3-1.4-2.5-1.8-3.7
			c-0.4-1.2-0.6-2.3-0.6-3.5c0-1.7,0.3-2.9,1-3.6c0.7-0.7,1.4-1.1,2.3-1.2l0.5,0l0.3,0c0.2,0,0.7,0.1,1.5,0.4
			c0.7,0.3,1.3,1.1,1.7,2.5c0.3,1.4,0.8,2.1,1.3,2c0.2-0.1,0.4-0.2,0.4-0.4l-0.2-0.6c-0.1-0.4-0.2-0.6-0.2-0.8l0.1-0.4
			c0.1-0.2,0.2-0.4,0.4-0.5c0.2-0.1,0.5-0.2,0.7-0.2c0.2,0,0.4,0.1,0.6,0.2c0.2,0.1,0.3,0.3,0.3,0.7c0.1,0.5-0.2,0.8-0.9,0.9
			c0,0.2,0,0.5,0,0.7c0,0.2-0.1,0.4-0.1,0.6c-0.1,0.2-0.2,0.3-0.4,0.4c-0.2,0.1-0.4,0.1-0.8,0.1c-0.6,0-1.3-0.4-1.9-1.3
			c-0.6-0.8-1.2-1.3-1.6-1.3c-0.2,0-0.6,0.1-1.1,0.3c-0.5,0.2-0.7,1-0.7,2.1c0,1,0.2,2.1,0.7,3.4c0.5,1.3,1.3,2.8,2.6,4.4
			c1.3,1.7,2.5,2.8,3.8,3.4c1.3,0.6,3,1,5.3,1.2c-0.6,0.3-1.1,0.5-1.7,0.8c-0.5,0.3-1,0.5-1.5,0.8c-0.4-0.1-0.9-0.2-1.5-0.4
			c-0.4-0.2-0.8-0.3-1-0.4c-0.2-0.1-0.4-0.2-0.5-0.3c-0.5-0.2-0.8-0.4-1-0.4c-0.5,0-0.9,0.3-1.2,0.8c-0.3,0.5-0.5,0.9-0.6,1.1
			c0,0.1-0.1,0.3-0.1,0.4c0,0.2,0,0.3-0.1,0.5c0,0.6,0.2,1.1,0.7,1.5c0.5,0.4,1.3,0.6,2.5,0.6l3.2,0c0.9,0,1.8-0.1,2.7-0.2l0.3-2.3
			l0-7.6l-3.7,2.3l-1.7,1.2c-0.3-0.1-0.6-0.3-0.7-0.4l-0.6-0.4c-0.2-0.2-0.4-0.3-0.4-0.4c0-0.1,0.1-0.1,0.1-0.2
			c0-0.1,0.1-0.1,0.3-0.2l6.3-4.1l-0.2-9.1l4.8-0.1c0.4,0,0.8,0.2,1,0.5c0.3,0.3,0.4,0.8,0.4,1.3l-0.1,1.2c0,0.5,0.2,0.8,0.7,0.8
			c0.4-0.1,0.5-0.3,0.5-0.6c0-0.3-0.1-0.7-0.3-1.3c-0.2-0.5-0.3-0.9-0.3-1c0-0.4,0.1-0.6,0.4-0.9c0.2-0.2,0.5-0.3,0.8-0.3
			c0.3,0,0.5,0.1,0.8,0.3c0.3,0.2,0.4,0.5,0.4,0.9c0,0.5-0.2,0.8-0.7,0.8c-0.2,0-0.4-0.1-0.7-0.2l0.6,0.9c0.1,0.2,0.1,0.4,0.2,0.7
			c0,0.3-0.1,0.6-0.4,0.9c-0.3,0.3-0.7,0.4-1.3,0.4c-0.4,0-0.8-0.1-1.2-0.2c-0.4-0.2-0.6-0.5-0.8-1c-0.1-0.5-0.3-0.7-0.6-0.8
			c-0.4,0-0.7,0.3-0.8,1c-0.1,0.3-0.1,0.9-0.2,1.6c0,0.7-0.1,1.6-0.1,2.7c0,2.1,0,3.9,0.1,5.4c0.1,1.5,0.1,2.8,0.2,3.8
			c0.1,1,0.2,1.8,0.4,2.5c0.1,0.7,0.3,1.3,0.4,1.7l0.6,1.2l-0.6,0.6c-0.2,0.2-0.4,0.3-0.5,0.4l-8.8,0.2
			C332.7,348.6,331.6,348.6,330.7,348.6z"/>
	</g>
</g>
<g id="Layer_9">
</g>
<g id="Layer_2">
	<ellipse fill="none" stroke="#B4754A" stroke-width="8" stroke-miterlimit="10" cx="179.8" cy="253.4" rx="108.7" ry="106.3"/>
	<ellipse fill="none" stroke="#BD995F" stroke-width="2" stroke-miterlimit="10" cx="179.8" cy="253.4" rx="108.7" ry="106.3"/>
	<g>
		<path fill="#D4CBA2" stroke="#000000" stroke-miterlimit="10" d="M158.9,304.8c0,0-7.5,23.4-78.1,16.8c0,0,23.4,13.6,64.1,15.9
			c0,0-12.2,19.2-5.6,46.8c0.5,2.3,28.5-27.6,36.5-39.8c0,0,25.3,38.8,47.3,42.6c0,0-0.9-28.1-13.6-45.4c0,0,24.3,20.6,58,16.8
			c0,0-13.1-22.5-38.4-29.9c0,0,36-4.2,42.6-15.4c0,0-53.3,3.7-67.8-8.4H158.9z"/>
	</g>
	<g id="colar">
		<path fill="#464934" stroke="#000000" stroke-miterlimit="10" d="M160.2,306.6c0,0,11.1,7.3,42.4-1.8c0,0,7.9,19.2,45.4,15
			c6.5-0.7-26.2,7.6-33.8,5.6c0,0,41.4,20.9,40.3,27.2c0,0-17,0.7-56.3-23.5c0,0,20.8,43.7,15.3,44.9c0,0-14.2-2.4-39.6-39.9
			c0,0-25,37.4-30.5,39.9c0,0-3.5-17.9,9.5-45.4c0,0-14.7,4.9-43.4-1C109.5,327.5,155,324.9,160.2,306.6z"/>
	</g>
	<g>
		<path fill="#464934" stroke="#000000" stroke-miterlimit="10" d="M91.6,325.3"/>
	</g>
	<circle fill="#C05846" stroke="#000000" stroke-miterlimit="10" cx="80.2" cy="320.7" r="5.1"/>
	<circle fill="#C05846" stroke="#000000" stroke-miterlimit="10" cx="138.3" cy="388.9" r="6.1"/>
	<circle fill="#C05846" stroke="#000000" stroke-miterlimit="10" cx="225.3" cy="389.4" r="5.1"/>
	<circle fill="#C05846" stroke="#000000" stroke-miterlimit="10" cx="270.4" cy="358.7" r="4.9"/>
	<circle fill="#C05846" stroke="#000000" stroke-miterlimit="10" cx="274.6" cy="313.9" r="4.4"/>
	<g>
		<path fill="#E8BF87" stroke="#000000" stroke-miterlimit="10" d="M156.1,236.8c2.1-2.7,7.2-6.7,12.8-3.6"/>
	</g>
	<g>
		<path fill="#E8BF87" stroke="#000000" stroke-miterlimit="10" d="M195.1,233.8c0,0,8.3-9.2,12-1.4"/>
	</g>
	<path fill="#E8BF87" stroke="#000000" stroke-miterlimit="10" d="M142.8,227.5c0,0-1.7-3.8-3.9-6.9c-3-4.3-7.1-7.2-9,3.1
		c0,2.3,4.9,13.1,6.4,28.1c0,0,4.1,13.6,7.9,2.4L142.8,227.5L142.8,227.5L142.8,227.5l1.5,26.7L142.8,227.5z"/>
	<path fill="#E8BF87" stroke="#000000" stroke-miterlimit="10" d="M217.7,227.5c0,0,1.7-3.8,3.9-6.9c3-4.3,7.1-7.2,9,3.1
		c0,2.3-4.9,13.1-6.4,28.1c0,0-4.1,13.6-7.9,2.4L217.7,227.5L217.7,227.5L217.7,227.5l-1.5,26.7L217.7,227.5z"/>
	<g>
		<path fill="#413E2F" stroke="#000000" stroke-miterlimit="10" d="M140.6,178.3c0,0,12.2-47.7,48.7-65.5c0,0,38.4-18.7,33.7,15.9
			l-5.6-0.9c0,0,1.4-17.2-14-10.1c0,0-16.1,6.6,8.4,30.7c0,0,7.1,5.8,11.6,17.8l-7.9,12.2c0,0-29-15-68.3,11.2L140.6,178.3z"/>
	</g>
	<g>
		<path fill="#413E2F" stroke="#000000" stroke-miterlimit="10" d="M140.7,188.7c0,0-0.8-2.1-2.3-4.9c-1.8-3.3-4.7-7.5-8.4-9.9
			c-2.5-1.6-5.5-2.5-8.8-1.6c-7.1,1.9-15.7,11.5-25.4,37.4c0,0-6.6,27.1-15,32.8h-5.6c0,0,4.7,0.5,5.6-63.6c0,0,2.8-20.1,35.1-30.4
			c0,0,20.1-8.4,34.6,8.4l12.6,21L140.7,188.7L140.7,188.7L140.7,188.7L140.7,188.7l22.5-10.8l0,0l0,0l0,0"/>
	</g>
	<path fill="#413E2F" stroke="#000000" stroke-miterlimit="10" d="M203.4,174.6c0,0,13.6-35.9,44.5-18.1c0,0,12.6,1.9,6.6,43
		c0,0-0.5,26.7,21.8,43l4.4-4.8c0,0-3.3-6,0-34.5c0,0,7-30.9-8.9-46.3C271.7,156.9,216.1,133.5,203.4,174.6z"/>
	<path fill="#C05846" stroke="#000000" stroke-miterlimit="10" d="M99.1,201.3c0,0,7.4-94.7,64-22.2l-22.5,9.5
		C140.7,188.7,125.2,144.3,99.1,201.3z"/>
	<path fill="#C05846" stroke="#000000" stroke-miterlimit="10" d="M203.4,174.6l19.9,6.2c0,0,23.4-24.7,28.5-21.1
		C251.8,159.7,223.4,133.3,203.4,174.6z"/>
	<g>
		<path fill="#E8BF87" stroke="#000000" stroke-miterlimit="10" d="M144.4,250.9c0,0-2.8,38.8,14.5,53.8c0,0,2.3,5.6,10.8,4.7
			c0,0,3.3,6.6,6.6,7c3.3,0.5,12.8,0,13.7-0.9c0.9-0.9-0.2-6.4,6.9-6.1c0,0,15.4-10.3,19.2-52.9l2.8-55.2c0,0-16.4-23.4-74.4,3.7
			C144.4,205.1,140.7,242.5,144.4,250.9z"/>
	</g>
	<circle fill="#FFF2B0" stroke="#000000" stroke-miterlimit="10" cx="77.4" cy="248.1" r="6.6"/>
	<circle fill="#FFF2B0" stroke="#000000" stroke-miterlimit="10" cx="281.9" cy="243.6" r="5.7"/>
	<g>
		<path fill="#C05846" stroke="#000000" stroke-miterlimit="10" d="M219.3,126.9c0,0,1.6-19.3-15.9-13.7c0,0-32.8,8.9-21.4,61.8
			c0,0,19.2-1.4,21.4-0.4c2.1,0.9,4.4-13.9,15-19.1c0,0-21.4-23.3-20.1-28.2c0,0,0.4-9.2,6.6-10.2c0,0,12.5-6.3,12.6,10.7
			L219.3,126.9z"/>
	</g>
	<path fill="#C05846" stroke="#000000" stroke-miterlimit="10" d="M140.7,188.7l3.7,16.4c0,0,53.3-27.1,74.4-3.7l4.5-20.6
		C223.3,180.8,187.5,160.9,140.7,188.7z"/>
	<g>
		<path fill="none" stroke="#000000" stroke-miterlimit="10" d="M179.7,250c0,0-9.2-2.5-2.7,7.4c0,0,2.3,1.7,1.8,9.9
			c0,0,0.1,2.8,4.5,1.9c0,0,2.7,0.4,3.5-2.6c0.9-3,0.5-8.6,0.5-8.6s8.3-10.9-1-7.6"/>
	</g>
	<circle fill="#FFF2B0" stroke="#000000" stroke-miterlimit="10" cx="219.3" cy="134.9" r="7.9"/>
	<g>
		<path fill="none" stroke="#000000" stroke-miterlimit="10" d="M172.4,253.3c0,0,1.3,10.7-9.9,8.1"/>
	</g>
	<g>
		<path fill="none" stroke="#000000" stroke-miterlimit="10" d="M160.2,263c0,0-2.6,1.7-2.3,7.2"/>
	</g>
	<g>
		<path fill="none" stroke="#000000" stroke-miterlimit="10" d="M192.4,253.4c0,0,0,3.5,5.3,7.1"/>
	</g>
	<path fill="none" stroke="#000000" stroke-miterlimit="10" d="M199.1,261.3c0,0,5.4,1.5,6.9,7.6"/>
	<g>
		<path fill="none" stroke="#000000" stroke-width="1.5" stroke-miterlimit="10" d="M154,223.3c0,0,0.5-10.3,9.1-11.7
			c0,0,7.3-0.7,13.1,12.6"/>
	</g>
	<g>
		<path fill="none" stroke="#000000" stroke-width="1.5" stroke-miterlimit="10" d="M211.3,221.9c0,0-2.3-9.4-8-8.9
			c0,0-6.1,1.4-13.6,11.2"/>
	</g>
	<path fill="none" stroke="#000000" stroke-miterlimit="10" d="M156.6,235.5c0,0,7.5-7.5,11.2-2.8
		C167.8,232.7,161.3,221.5,156.6,235.5z"/>
	<path fill="none" stroke="#000000" stroke-miterlimit="10" d="M196.4,232c0,0,8-7.3,10.8,0C207.1,232,203.8,216.3,196.4,232z"/>
	<path fill="#333333" stroke="#000000" stroke-miterlimit="10" d="M159.4,274.5c0,0,1.6,11.7,7.7,19.6c2.9,3.8,6.9,6.6,12.1,6.9
		c0,0,11.3,0.9,13.8-3.7c2.5-4.7,3.7-3.6,7.5-24.1C200.6,273.2,181.2,293.9,159.4,274.5z"/>
	<g>
		<path fill="#D89463" stroke="#000000" stroke-miterlimit="10" d="M196,292c0.7-2.4-7.9-4.9-30.3,0c0,0,7.4,9.9,15.1,9.1
			S193.6,300.2,196,292z"/>
	</g>
	<g>
		<path fill="#AC7A55" d="M138.1,242.5c0,0-0.6-0.2-1.3-2.8c-0.3-1-0.5-2.4-0.7-4.2c-0.8-6.6-0.8-6.6-0.8-6.6s0.6-4.4,1.4,0
			c0.8,4.4,2.7,7.3,3,8.8S140.6,241.7,138.1,242.5z"/>
	</g>
	<g>
		<path fill="#AC7A55" d="M221.6,243.1c0,0,0.6-0.2,1.3-2.8c0.3-1,0.5-2.4,0.7-4.2c0.8-6.6,0.8-6.6,0.8-6.6s-0.6-4.4-1.4,0
			c-0.8,4.4-2.7,7.3-3,8.8S219.1,242.3,221.6,243.1z"/>
	</g>
	<g>
		<path fill="none" stroke="#000000" stroke-miterlimit="10" d="M161.7,272.7c0,0-2.3-0.5-5.6,4"/>
	</g>
	<g>
		<path fill="none" stroke="#000000" stroke-miterlimit="10" d="M198.2,271.2c0,0,2.3-0.5,5.6,4"/>
	</g>
	<g id="Layer_4">
	</g>
</g>
<g id="wrinkles">
	<line fill="none" stroke="#000000" stroke-miterlimit="10" x1="147.4" y1="230.3" x2="150.9" y2="232.9"/>
	<line fill="none" stroke="#000000" stroke-miterlimit="10" x1="148.1" y1="234" x2="151.2" y2="236.4"/>
	<g>
		<line fill="none" stroke="#000000" stroke-miterlimit="10" x1="214.2" y1="227.3" x2="210.7" y2="229.9"/>
		<line fill="none" stroke="#000000" stroke-miterlimit="10" x1="213.5" y1="231" x2="210.4" y2="233.4"/>
	</g>
</g>
<g id="hair">
	<path fill="#333333" d="M152.9,201.3c0,0-3.4,15.8-9.5,16.6l1-12.9L152.9,201.3z"/>
	<path fill="#333333" d="M211.3,195.7c0,0,1.1,19.6,6.7,21l0.8-15.4L211.3,195.7z"/>
	<g>
		<path fill="#333333" d="M176.2,194c0,0-5.3,5.6,0,12.4l3.4-6.2c0,0-4.4,5.2,0,9.6c0,0,6.2-10.7,3.1-10.1
			c-3.1,0.6,2.3,14.3,3.3,10.1c0,0,9.3-17.9,4.7-17.6C186,192.4,176.2,194,176.2,194L176.2,194"/>
	</g>
</g>
<g id="Layer_8">
</g>
<g id="suits">
	<g>
		<g>
			<path fill="#C05846" stroke="#CCCC99" stroke-miterlimit="10" d="M29.5,460c0,0,34.5-29.7,0,31.2"/>
			<path fill="#C05846" stroke="#CCCC99" stroke-miterlimit="10" d="M29.9,460c0,0-34.5-29.7,0,31.2"/>
		</g>
		<g>
			<path fill="#464934" stroke="#AF9D77" stroke-miterlimit="10" d="M66.9,492.5h14.4c0,0-3.2-22-4.2-27h-6.7
				C70.4,465.5,68.5,483.5,66.9,492.5z"/>
			<circle fill="#464934" stroke="#AF9D77" stroke-miterlimit="10" cx="63.6" cy="472.7" r="8.1"/>
			<circle fill="#464934" stroke="#AF9D77" stroke-miterlimit="10" cx="84.5" cy="472.7" r="8.1"/>
			<circle fill="#464934" stroke="#AF9D77" stroke-miterlimit="10" cx="74" cy="460.7" r="8.8"/>
		</g>
		<polygon fill="#C05846" stroke="#CCCC99" stroke-miterlimit="10" points="119.9,492.5 105.5,473.1 119.9,453.5 134.4,471.8 		"/>
		<g>
			<path fill="#464934" stroke="#AF9D77" stroke-miterlimit="10" d="M153.4,492.5h14.4c0,0-3.2-22-4.2-27h-6.7
				C156.9,465.5,155,483.5,153.4,492.5z"/>
			<g>
				<path fill="#464934" stroke="#AF9D77" stroke-miterlimit="10" d="M160.4,474.1c0,0-31.3,20-0.4-20.6"/>
				<path fill="#464934" stroke="#AF9D77" stroke-miterlimit="10" d="M160.1,474.1c0,0,32.2,19.3-0.4-20.6"/>
			</g>
		</g>
	</g>
	<g>
		<g>
			<path fill="#C05846" stroke="#CCCC99" stroke-miterlimit="10" d="M202.5,22c0,0,34.5-29.7,0,31.2"/>
			<path fill="#C05846" stroke="#CCCC99" stroke-miterlimit="10" d="M202.9,22c0,0-34.5-29.7,0,31.2"/>
		</g>
		<g>
			<path fill="#464934" stroke="#AF9D77" stroke-miterlimit="10" d="M239.9,54.5h14.4c0,0-3.2-22-4.2-27h-6.7
				C243.4,27.5,241.5,45.5,239.9,54.5z"/>
			<circle fill="#464934" stroke="#AF9D77" stroke-miterlimit="10" cx="236.6" cy="34.7" r="8.1"/>
			<circle fill="#464934" stroke="#AF9D77" stroke-miterlimit="10" cx="257.5" cy="34.7" r="8.1"/>
			<circle fill="#464934" stroke="#AF9D77" stroke-miterlimit="10" cx="247" cy="22.7" r="8.8"/>
		</g>
		<polygon fill="#C05846" stroke="#CCCC99" stroke-miterlimit="10" points="292.9,54.5 278.5,35.1 292.9,15.5 307.4,33.8 		"/>
		<g>
			<path fill="#464934" stroke="#AF9D77" stroke-miterlimit="10" d="M326.4,54.5h14.4c0,0-3.2-22-4.2-27h-6.7
				C329.9,27.5,328,45.5,326.4,54.5z"/>
			<g>
				<path fill="#464934" stroke="#AF9D77" stroke-miterlimit="10" d="M333.4,36.1c0,0-31.3,20-0.4-20.6"/>
				<path fill="#464934" stroke="#AF9D77" stroke-miterlimit="10" d="M333.1,36.1c0,0,32.2,19.3-0.4-20.6"/>
			</g>
		</g>
	</g>
</g>
<g id="Layer_11">
	<g>
		<g>
			<path fill="none" stroke="#000000" stroke-miterlimit="10" d="M75.6,248.7c0,0,2.6,3.1,3.7,2.5"/>
		</g>
		<g>
			<path fill="none" stroke="#000000" stroke-miterlimit="10" d="M73.9,248.6c0,0,1.1,1.1,2.4-1.1"/>
		</g>
		<g>
			<path fill="none" stroke="#000000" stroke-miterlimit="10" d="M77.4,251.3c0,0,1.1,1.1,2.5-1.2"/>
		</g>
	</g>
	<g>
		<g>
			<path fill="none" stroke="#000000" stroke-miterlimit="10" d="M217.8,135.5c0,0,2,3.5,3.2,3.2"/>
		</g>
		<g>
			<path fill="none" stroke="#000000" stroke-miterlimit="10" d="M216.2,135.2c0,0,1.2,1.2,4.6-1.2"/>
		</g>
		<g>
			<path fill="none" stroke="#000000" stroke-miterlimit="10" d="M218.2,138.8c0,0,1.2,1.2,4.6-1.2"/>
		</g>
	</g>
	<g>
		<g>
			<path fill="none" stroke="#000000" stroke-miterlimit="10" d="M280.7,244.2c0,0,1.5,2.4,2.5,2.2"/>
		</g>
		<g>
			<path fill="none" stroke="#000000" stroke-miterlimit="10" d="M279.4,244c0,0,1,0.8,3.7-1"/>
		</g>
		<g>
			<path fill="none" stroke="#000000" stroke-miterlimit="10" d="M280.9,246.5c0,0,1,0.8,3.7-1"/>
		</g>
	</g>
</g>
</svg>
